<svg width="72" height="41" viewBox="0 0 72 41" fill="none" xmlns="http://www.w3.org/2000/svg">
<path d="M27.6219 11.2045C25.8988 14.4672 21.3432 14.8388 18.9504 11.9118V11.9118C16.2833 8.64921 18.2643 3.83818 22.4143 3.49969V3.49969C26.5642 3.1612 29.5426 7.56773 27.6219 11.2045V11.2045Z" fill="#0C4137"/>
<ellipse cx="45" cy="18.8586" rx="18.8586" ry="21.72" transform="rotate(-90 45 18.8586)" fill="#FFD672"/>
<path d="M0.192555 9.74272C0.192555 18.0327 -1.50883 27.428 5.20331 33.2899C11.9154 39.1517 26.4913 41 35.9837 41C45.4761 41 60.1712 39.1517 66.8833 33.2899C73.5955 27.428 71.7748 18.0327 71.7748 9.74272L35.9837 9.74272L0.192555 9.74272Z" fill="#68B688"/>
<rect y="19.7963" width="72" height="8.54366" fill="#D8F7CD"/>
</svg>
