<svg width="55" height="31" viewBox="0 0 55 31" fill="none" xmlns="http://www.w3.org/2000/svg">
<path d="M21.0761 8.51664C19.7654 10.9732 16.3294 11.2506 14.5093 9.0468C12.4637 6.57001 13.9612 2.90128 17.122 2.64611C20.2828 2.39093 22.5492 5.75578 21.0761 8.51664Z" fill="#0C4137"/>
<ellipse cx="34.375" cy="14.2589" rx="14.2589" ry="16.5917" transform="rotate(-90 34.375 14.2589)" fill="#FFD672"/>
<path d="M0.147087 7.36645C0.147087 13.6345 -1.15258 20.7382 3.97475 25.1704C9.10207 29.6025 20.2364 31 27.4875 31C34.7387 31 45.9641 29.6025 51.0914 25.1704C56.2188 20.7382 54.828 13.6345 54.828 7.36645L27.4875 7.36645L0.147087 7.36645Z" fill="#68B688"/>
<rect y="14.9679" width="55" height="6.45984" fill="#D8F7CD"/>
</svg>
