<svg width="240" height="192" viewBox="0 0 240 192" fill="none" xmlns="http://www.w3.org/2000/svg">
<path d="M85.9832 68.67C83.5769 75.0714 74.9664 76.0581 71.6248 70.3154L48.6731 30.8721C45.7605 25.8665 49.136 19.3197 54.9745 18.6507L94.4541 14.1268C100.293 13.4577 104.609 19.1232 102.511 24.7028L85.9832 68.67Z" fill="#68B1B6"/>
<ellipse cx="150" cy="88.3132" rx="88.3133" ry="72.4" transform="rotate(-90 150 88.3132)" fill="#FFD672"/>
<path d="M0.641842 45.6244C0.641842 84.4456 -5.02943 128.443 17.3444 155.894C39.7181 183.345 88.3043 192 119.946 192C151.587 192 200.571 183.345 222.944 155.894C245.318 128.443 239.249 84.4457 239.249 45.6244L119.946 45.6244L0.641842 45.6244Z" fill="#68B688"/>
<rect y="92.7046" width="240" height="40.0093" fill="#D8F7CD"/>
</svg>
